<svg xmlns="http://www.w3.org/2000/svg" viewBox="0 0 35.289 35" width="34.281" height="34.001" xmlns:v="https://vecta.io/nano"><path d="M1.516 24.638C.7 16.684 10.286 3.835 16.609 4.548s6.221 6.017 6.527 10.504l8.362-8.158C28.234 2.611 23.135.163 17.629.163 5.289.163-3.277 12.503 1.516 24.638zm3.773.816c2.549 3.569 11.728-5.303 14.787-7.648-.306-3.875-.612-8.974-2.447-9.79C12.326 5.466 2.536 21.069 5.289 25.454zM33.333 9.647c-1.53 1.53-5.405 5.507-9.892 9.484.816 6.731.612 6.017 4.691 6.833 2.244.51 1.53 3.365-.51 3.161-4.997-.51-6.731-2.346-7.138-7.75-5.099 4.079-11.524 10.402-16.622 7.037 3.365 4.079 8.362 6.425 13.665 6.425 12.849.102 21.517-13.563 15.807-25.189z" fill="#19d"/></svg>